<svg width="64" height="64" viewBox="0 0 64 64" xmlns="http://www.w3.org/2000/svg">
  <circle cx="32" cy="32" r="31" fill="#003087"/>
  <circle cx="32" cy="32" r="26" fill="#C8102E"/>
  <g fill="#f5efe3" transform="translate(32 34)">
    <path d="M -11,4 C -11,-2 -7,-6 -2,-6 L 7,-6 C 11,-6 13,-3 13,1 L 13,7 C 13,9 12,10 10,10 L -9,10 C -11,10 -12,9 -12,7 Z"/>
    <ellipse cx="13" cy="-12" rx="5.5" ry="4.5"/>
    <path d="M 16,-11 L 20,-11 L 20,-8.5 L 16,-8.5 Z"/>
    <path d="M 7,-6 L 9,-11 L 13,-11 L 12,-5 Z"/>
    <path d="M 9,-15 Q 8,-11 11,-10 Q 13,-11 12,-15 Z" fill="#003087"/>
    <circle cx="14" cy="-12.5" r="0.7" fill="#003087"/>
  </g>
</svg>
